# xmcd
#
# Track frame offsets:
#	150
#	16524
#	29427
#	41886
#	57724
#	71332
#	84728
#	99260
#	109347
#	126777
#
# Disc length: 1858 seconds
#
# Revision: 1
# Processed by: cddbd v1.5.2PL0 Copyright (c) Steve Scherf et al.
# Submitted via: audiograbber 1.83.01
#
DISCID=8207400a
DTITLE=Johnny Cash  - The Last Gunfighter Ballad
DYEAR=1977
DGENRE=Country
TTITLE0=I Will Dance With You 
TTITLE1=The Last Gunfighter Ballad
TTITLE2=Far Side Banks Of Jordan
TTITLE3=Ridin' On The Cotton Belt
TTITLE4=Give It Away
TTITLE5=You're So Close To Me
TTITLE6=CIty Jail
TTITLE7=Cindy,I Love You
TTITLE8=Ballad Of Barbara
TTITLE9=That Silver Haired Daddy Of Mine
EXTD=
EXTT0=
EXTT1=
EXTT2=
EXTT3=
EXTT4=
EXTT5=
EXTT6=
EXTT7=
EXTT8=
EXTT9=
PLAYORDER=
